<svg xmlns="http://www.w3.org/2000/svg" viewBox="0 0 744.09449 1052.3622" height="297mm" width="210mm"><path d="M166.628 152.747c-1.69-1.69-1.69-36.91 0-38.6 1.744-1.744 281.856-1.744 283.6 0 1.69 1.69 1.69 36.91 0 38.6-1.744 1.744-281.856 1.744-283.6 0zm203.8-4.108c0-4.068.224-4.407 4.015-6.08 8.254-3.64 9.333-14.313 1.84-18.188-5.566-2.88-5.855-2.43-5.855 9.075 0 10.927-.247 11.463-4.316 9.383-8.118-4.152-7.36-15.29 1.282-18.87 2.726-1.128 3.034-1.7 3.034-5.64v-4.383l-101.75.255-101.75.255-.274 17.966c-.15 9.882-.052 18.544.218 19.25.397 1.033 20.304 1.284 102.024 1.284h101.532v-4.308zm-197-14.597v-14.096h22v6h-7.573c-6.673 0-7.534.208-7.24 1.75.25 1.322 1.673 1.892 5.823 2.332 3.02.32 6.236.914 7.148 1.32 2.38 1.062 4.14 5.97 3.38 9.427-1.183 5.38-3.702 6.63-14.14 7.016l-9.398.347v-14.097zm15.52 6.512c2.86-2.09.322-4.608-4.643-4.608-3.395 0-3.877.29-3.877 2.333 0 1.283.3 2.633.666 3 1.16 1.158 5.875.723 7.855-.725zm7.726 6.142c.253-.688 2.62-7.01 5.256-14.05l4.796-12.798 4.496.298 4.497.3 4.853 12.863c2.67 7.076 4.855 13.264 4.855 13.75 0 .488-1.56.887-3.465.887-2.44 0-3.78-.59-4.535-2-.868-1.62-2.094-2-6.468-2-4.52 0-5.5.325-6.032 2-.497 1.565-1.513 2-4.675 2-2.81 0-3.9-.38-3.58-1.25zm17.354-11.206c-.34-1.35-1.105-3.712-1.7-5.25l-1.087-2.793-1.74 4.5c-.96 2.475-1.565 4.837-1.35 5.25.218.412 1.768.75 3.445.75 2.74 0 2.987-.25 2.433-2.456zm13.4-1.543v-14h9.077c8.7 0 9.198.12 12 2.923 3.29 3.29 3.714 6.646 1.405 11.112-1.61 3.113-3.27 3.778-10.482 4.2l-4.5.265-.305 4.75c-.3 4.688-.35 4.75-3.75 4.75h-3.445v-14zm16.643-3.513c.993-2.585-1.64-4.616-5.557-4.288-3.078.258-3.63.69-3.902 3.05-.303 2.648-.143 2.75 4.283 2.75 3.18 0 4.776-.465 5.178-1.512zm3.367 16.763c.005-.413 2.212-6.6 4.903-13.75l4.894-13h9.388l4.893 13c2.692 7.15 4.898 13.337 4.903 13.75.005.412-1.738.75-3.874.75-3.042 0-3.996-.433-4.406-2-.446-1.705-1.364-2-6.21-2s-5.765.295-6.21 2c-.41 1.567-1.364 2-4.407 2-2.135 0-3.878-.338-3.873-.75zm17.99-9.572c0-.177-.754-2.538-1.677-5.247l-1.678-4.925-1.2 2.997c-2.925 7.32-2.902 7.497.988 7.497 1.963 0 3.568-.145 3.568-.322zm13-3.678v-14h7v10h12v-10h7v28h-7v-11h-12v11h-7v-14zm44 9.25v-4.75h-5.586c-4.88 0-5.89-.355-8-2.806-2.01-2.337-2.412-3.88-2.412-9.25v-6.443h7v5.465c0 6.125 1.852 8.112 6.48 6.95 2.337-.586 2.52-1.06 2.52-6.524v-5.89h7v28h-7v-4.75zm9.167 3.974c.184-.426 2.533-6.726 5.22-14l4.887-13.223h9.24l2.632 7.25a1210.126 1210.126 0 0 0 5.2 14l2.566 6.75h-4.05c-3.206 0-4.156-.416-4.57-2-.447-1.71-1.364-2-6.29-2s-5.843.29-6.29 2c-.418 1.597-1.364 2-4.7 2-2.297 0-4.027-.35-3.844-.776zm17.426-11.473c-.352-1.238-.91-3.488-1.24-5-.83-3.792-1.828-3.443-3.194 1.116-1.674 5.587-1.5 6.134 1.958 6.134 2.756 0 3.043-.26 2.476-2.25zm42.603 7.5l.305-4.75 5.702-.3c4.988-.26 6.033-.69 8.35-3.443 3.304-3.928 2.86-9.088-1.074-12.507-2.27-1.973-3.692-2.25-11.534-2.25h-8.944v28h3.445c3.4 0 3.45-.062 3.75-4.75zm-.195-14.25c0-2.818.236-3 3.877-3 2.227 0 4.408.638 5.123 1.5 1.944 2.343-.51 4.5-5.123 4.5-3.64 0-3.877-.183-3.877-3zm39 17.618c0-.792 1.828-1.84 4.29-2.46 5.26-1.326 8.6-4.704 9.376-9.488.515-3.172.162-4.042-2.86-7.065-2.085-2.084-4.903-3.72-7.127-4.138-2.14-.4-3.68-1.27-3.68-2.08 0-1.85-6.596-1.88-7.306-.03-.286.747-1.884 1.63-3.55 1.964-1.666.333-4.51 1.93-6.32 3.547-2.777 2.48-3.276 3.592-3.185 7.087.137 5.223 3.252 8.755 9.1 10.32 2.345.627 4.263 1.72 4.263 2.432 0 .81 1.305 1.293 3.5 1.293 2.31 0 3.5-.47 3.5-1.382zm0-12.65c0-5.522-.09-5.422 3.453-3.808 4.186 1.907 3.25 6.388-1.702 8.153-1.516.54-1.75-.042-1.75-4.345zm-11.8 2.832c-2.015-2.015-1.4-5.39 1.2-6.573 3.05-1.39 3.6-.79 3.6 3.94 0 3.024-.38 3.833-1.8 3.833-.99 0-2.34-.54-3-1.2z" fill="#474747"/></svg>